<svg xmlns="http://www.w3.org/2000/svg" xmlns:xlink="http://www.w3.org/1999/xlink" version="1.0" x="0" y="0" width="2400" height="2202.304685505387" viewBox="133.28 91.30473449707031 73.44 67.39052337646484" preserveAspectRatio="xMidYMid meet" color-interpolation-filters="sRGB"><g><defs><linearGradient id="92" x1="0%" y1="0%" x2="100%" y2="0%"><stop offset="0%" stop-color="#fa71cd"></stop> <stop offset="100%" stop-color="#9b59b6"></stop></linearGradient><linearGradient id="93" x1="0%" y1="0%" x2="100%" y2="0%"><stop offset="0%" stop-color="#f9d423"></stop> <stop offset="100%" stop-color="#f83600"></stop></linearGradient><linearGradient id="94" x1="0%" y1="0%" x2="100%" y2="0%"><stop offset="0%" stop-color="#0064d2"></stop> <stop offset="100%" stop-color="#1cb0f6"></stop></linearGradient><linearGradient id="95" x1="0%" y1="0%" x2="100%" y2="0%"><stop offset="0%" stop-color="#f00978"></stop> <stop offset="100%" stop-color="#3f51b1"></stop></linearGradient><linearGradient id="96" x1="0%" y1="0%" x2="100%" y2="0%"><stop offset="0%" stop-color="#7873f5"></stop> <stop offset="100%" stop-color="#ec77ab"></stop></linearGradient><linearGradient id="97" x1="0%" y1="0%" x2="100%" y2="0%"><stop offset="0%" stop-color="#f9d423"></stop> <stop offset="100%" stop-color="#e14fad"></stop></linearGradient><linearGradient id="98" x1="0%" y1="0%" x2="100%" y2="0%"><stop offset="0%" stop-color="#009efd"></stop> <stop offset="100%" stop-color="#2af598"></stop></linearGradient><linearGradient id="99" x1="0%" y1="0%" x2="100%" y2="0%"><stop offset="0%" stop-color="#ffcc00"></stop> <stop offset="100%" stop-color="#00b140"></stop></linearGradient><linearGradient id="100" x1="0%" y1="0%" x2="100%" y2="0%"><stop offset="0%" stop-color="#d51007"></stop> <stop offset="100%" stop-color="#ff8177"></stop></linearGradient><linearGradient id="102" x1="0%" y1="0%" x2="100%" y2="0%"><stop offset="0%" stop-color="#a2b6df"></stop> <stop offset="100%" stop-color="#0c3483"></stop></linearGradient><linearGradient id="103" x1="0%" y1="0%" x2="100%" y2="0%"><stop offset="0%" stop-color="#7ac5d8"></stop> <stop offset="100%" stop-color="#eea2a2"></stop></linearGradient><linearGradient id="104" x1="0%" y1="0%" x2="100%" y2="0%"><stop offset="0%" stop-color="#00ecbc"></stop> <stop offset="100%" stop-color="#007adf"></stop></linearGradient><linearGradient id="105" x1="0%" y1="0%" x2="100%" y2="0%"><stop offset="0%" stop-color="#b88746"></stop> <stop offset="100%" stop-color="#fdf5a6"></stop></linearGradient></defs><g fill="#0a0619" class="icon-text-wrapper icon-svg-group iconsvg" transform="translate(140,98.02473640441895)"><g class="iconsvg-imagesvg" transform="translate(0,0)" mask="url(#5cf1f5ab-e036-40ed-abac-761e963c7aa3)"><g><rect fill="#0a0619" fill-opacity="0" stroke-width="2" x="0" y="0" width="60" height="53.950527366405005" class="image-rect"></rect> <svg filter="url(#colors1671401957)" x="0" y="0" width="60" height="53.950527366405005" filtersec="colorsf6443492433" class="image-svg-svg primary" style="overflow: visible;"><svg xmlns="http://www.w3.org/2000/svg" xmlns:xlink="http://www.w3.org/1999/xlink" version="1.1" x="0px" y="0px" viewBox="17.43400001525879 66.4530029296875 965.3759765625 868.0460205078125" enable-background="new 0 0 1000 1000" xml:space="preserve"><g><path d="M566.263,66.453C336.21,66.453,149.716,252,149.716,483H17.434C17.434,672,161,827.422,345,846.195v40.402   c0,26.457,21.544,47.902,48,47.902c26.456,0,48-21.445,48-47.902v-43.152c22-3.449,43-8.778,63-15.808v58.96   c0,26.457,21.543,47.902,48,47.902s48-21.445,48-47.902V777.01C690,710.456,748.53,603,748.53,483H982.81   C982.81,252,796.315,66.453,566.263,66.453z M663.781,389.365C579.931,398.996,504.167,338.834,494.539,255l303.607-34.872   C807.774,303.963,747.607,379.738,663.781,389.365z"></path><path d="M652.005,272.632c-23.329,2.679-40.068,23.763-37.388,47.092c2.677,23.327,23.764,40.064,47.09,37.385   c23.324-2.679,40.067-23.762,37.387-47.087C696.413,286.692,675.33,269.953,652.005,272.632z"></path></g></svg></svg> <defs><filter id="colors1671401957"><feColorMatrix type="matrix" values="0 0 0 0 0.11328125  0 0 0 0 0.0390625  0 0 0 0 0.35546875  0 0 0 1 0" class="icon-feColorMatrix "></feColorMatrix></filter> <filter id="colorsf6443492433"><feColorMatrix type="matrix" values="0 0 0 0 0.99609375  0 0 0 0 0.99609375  0 0 0 0 0.99609375  0 0 0 1 0" class="icon-fecolormatrix"></feColorMatrix></filter> <filter id="colorsb1681370312"><feColorMatrix type="matrix" values="0 0 0 0 0  0 0 0 0 0  0 0 0 0 0  0 0 0 1 0" class="icon-fecolormatrix"></feColorMatrix></filter></defs></g><rect v-gra="id" width="72" height="65.95052719116211" transform="translate(-6, -6)" style="pointer-events:none;" fill="url(#60zY6PScF3q_f58hPqAcr)"></rect></g> <g transform="translate(30,60.95052719116211)"><g fill-rule="" class="tp-name iconsvg-namesvg"><g transform="scale(1)"><g><path d="" transform="translate(0, 0)"></path></g> </g></g> </g></g><defs v-gra="od"></defs><defs v-gra="id"><filter id="8e3762ca-13a3-41b0-a826-2a9c5f9599bf" filterUnits="userSpaceOnUse"><feColorMatrix type="matrix" values="0 0 0 0 0.99609375  0 0 0 0 0.99609375  0 0 0 0 0.99609375  0 0 0 1 0"></feColorMatrix></filter><linearGradient x1="0" y1="1" x2="0" y2="0" id="60zY6PScF3q_f58hPqAcr"><stop offset="0%" stop-color="#2cf1ae"></stop><stop offset="50%" stop-color="#1eaafd"></stop><stop offset="100%" stop-color="#dd3ffc"></stop></linearGradient><filter id="42443b3f1de60f6b6fd3b6a9844b4764" filterUnits="objectBoundingBox"><feColorMatrix type="matrix" values="0 0 0 0 0.99609375  0 0 0 0 0.99609375  0 0 0 0 0.99609375  0 0 0 1 0"></feColorMatrix></filter></defs><mask v-gra="im" id="5cf1f5ab-e036-40ed-abac-761e963c7aa3"><g class="iconsvg-imagesvg" filter="url(#8e3762ca-13a3-41b0-a826-2a9c5f9599bf)"><g><rect fill="#0a0619" fill-opacity="0" stroke-width="2" x="0" y="0" width="60" height="53.950527366405005" class="image-rect"></rect> <svg x="0" y="0" width="60" height="53.950527366405005" filtersec="colorsf6443492433" class="image-svg-svg primary" style="overflow: visible;"><svg xmlns="http://www.w3.org/2000/svg" xmlns:xlink="http://www.w3.org/1999/xlink" version="1.1" x="0px" y="0px" viewBox="17.43400001525879 66.4530029296875 965.3759765625 868.0460205078125" enable-background="new 0 0 1000 1000" xml:space="preserve"><g><path d="M566.263,66.453C336.21,66.453,149.716,252,149.716,483H17.434C17.434,672,161,827.422,345,846.195v40.402   c0,26.457,21.544,47.902,48,47.902c26.456,0,48-21.445,48-47.902v-43.152c22-3.449,43-8.778,63-15.808v58.96   c0,26.457,21.543,47.902,48,47.902s48-21.445,48-47.902V777.01C690,710.456,748.53,603,748.53,483H982.81   C982.81,252,796.315,66.453,566.263,66.453z M663.781,389.365C579.931,398.996,504.167,338.834,494.539,255l303.607-34.872   C807.774,303.963,747.607,379.738,663.781,389.365z"></path><path d="M652.005,272.632c-23.329,2.679-40.068,23.763-37.388,47.092c2.677,23.327,23.764,40.064,47.09,37.385   c23.324-2.679,40.067-23.762,37.387-47.087C696.413,286.692,675.33,269.953,652.005,272.632z"></path></g></svg></svg> <defs><filter id="colors1671401957"><feColorMatrix type="matrix" values="0 0 0 0 0.11328125  0 0 0 0 0.0390625  0 0 0 0 0.35546875  0 0 0 1 0" class="icon-fecolormatrix"></feColorMatrix></filter> <filter id="colorsf6443492433"><feColorMatrix type="matrix" values="0 0 0 0 0.99609375  0 0 0 0 0.99609375  0 0 0 0 0.99609375  0 0 0 1 0" class="icon-fecolormatrix"></feColorMatrix></filter> <filter id="colorsb1681370312"><feColorMatrix type="matrix" values="0 0 0 0 0  0 0 0 0 0  0 0 0 0 0  0 0 0 1 0" class="icon-fecolormatrix"></feColorMatrix></filter></defs></g></g></mask></g></svg>